<svg width="28" height="28" viewBox="0 0 28 28" fill="none" xmlns="http://www.w3.org/2000/svg">
<path d="M14.2677 6.65717C10.3868 6.65717 7.25636 9.78828 7.25636 13.6701C7.25636 17.552 10.3868 20.6831 14.2677 20.6831C18.1487 20.6831 21.2791 17.552 21.2791 13.6701C21.2791 9.78828 18.1487 6.65717 14.2677 6.65717ZM14.2677 18.2295C11.7598 18.2295 9.70943 16.1848 9.70943 13.6701C9.70943 11.1555 11.7537 9.11079 14.2677 9.11079C16.7818 9.11079 18.8261 11.1555 18.8261 13.6701C18.8261 16.1848 16.7757 18.2295 14.2677 18.2295ZM23.2013 6.37031C23.2013 7.27973 22.4691 8.00605 21.5659 8.00605C20.6567 8.00605 19.9306 7.27363 19.9306 6.37031C19.9306 5.46699 20.6628 4.73456 21.5659 4.73456C22.4691 4.73456 23.2013 5.46699 23.2013 6.37031ZM27.8451 8.03047C27.7413 5.8393 27.2409 3.89838 25.6361 2.29926C24.0373 0.700135 22.0968 0.199646 19.9061 0.0897828C17.6483 -0.0383912 10.881 -0.0383912 8.62325 0.0897828C6.43867 0.193543 4.49819 0.694032 2.89332 2.29315C1.28845 3.89228 0.794174 5.8332 0.684335 8.02436C0.55619 10.2827 0.55619 17.0515 0.684335 19.3098C0.788072 21.5009 1.28845 23.4419 2.89332 25.041C4.49819 26.6401 6.43257 27.1406 8.62325 27.2505C10.881 27.3786 17.6483 27.3786 19.9061 27.2505C22.0968 27.1467 24.0373 26.6462 25.6361 25.041C27.2348 23.4419 27.7352 21.5009 27.8451 19.3098C27.9732 17.0515 27.9732 10.2888 27.8451 8.03047ZM24.9282 21.7329C24.4523 22.9292 23.5308 23.8508 22.3287 24.333C20.5286 25.0471 16.2571 24.8823 14.2677 24.8823C12.2784 24.8823 8.00083 25.041 6.20679 24.333C5.01077 23.8569 4.08934 22.9353 3.60727 21.7329C2.89332 19.9323 3.05808 15.6599 3.05808 13.6701C3.05808 11.6804 2.89942 7.4018 3.60727 5.60737C4.08324 4.41108 5.00467 3.48945 6.20679 3.00727C8.00693 2.29315 12.2784 2.45795 14.2677 2.45795C16.2571 2.45795 20.5347 2.29926 22.3287 3.00727C23.5247 3.48334 24.4462 4.40497 24.9282 5.60737C25.6422 7.40791 25.4774 11.6804 25.4774 13.6701C25.4774 15.6599 25.6422 19.9384 24.9282 21.7329Z" fill="white"/>
</svg>
