<svg width="32" height="30" viewBox="0 0 32 30" fill="none" xmlns="http://www.w3.org/2000/svg">
<path fill-rule="evenodd" clip-rule="evenodd" d="M7.66906 3.21813C7.66906 4.97253 6.33323 6.39234 4.24421 6.39234C2.23659 6.39234 0.900754 4.97253 0.942095 3.21813C0.900754 1.37846 2.23656 0 4.28423 0C6.3332 0 7.62901 1.37846 7.66906 3.21813ZM1.11005 29.3353V8.89992H7.46105V29.334L1.11005 29.3353Z" fill="white"/>
<path fill-rule="evenodd" clip-rule="evenodd" d="M12.5522 15.4237C12.5522 12.8747 12.4682 10.7018 12.3843 8.90471H17.9007L18.1939 11.7043H18.3193C19.1551 10.4085 21.2442 8.44609 24.629 8.44609C28.807 8.44609 31.9412 11.2043 31.9412 17.2194V29.3401H25.5901V18.0152C25.5901 15.381 24.6716 13.5853 22.3733 13.5853C20.6176 13.5853 19.5737 14.7971 19.1564 15.9663C18.9885 16.3848 18.9058 16.9688 18.9058 17.5553V29.3401H12.5548L12.5522 15.4237Z" fill="white"/>
</svg>
