<svg width="31" height="24" viewBox="0 0 31 24" fill="none" xmlns="http://www.w3.org/2000/svg">
<path d="M27.1186 5.81655C27.1371 6.07183 27.1371 6.32717 27.1371 6.58245C27.1371 14.3689 21.1204 23.3407 10.1236 23.3407C6.73573 23.3407 3.58854 22.3742 0.941162 20.6966C1.42252 20.7513 1.8853 20.7695 2.38518 20.7695C5.1806 20.7695 7.75395 19.8395 9.80891 18.2531C7.18005 18.1983 4.97699 16.5025 4.21794 14.1683C4.58824 14.223 4.95847 14.2595 5.34728 14.2595C5.88414 14.2595 6.42106 14.1865 6.92088 14.0589C4.18096 13.5118 2.12595 11.1413 2.12595 8.27832V8.20541C2.92198 8.64306 3.84771 8.91658 4.82883 8.95301C3.21819 7.89534 2.16299 6.09007 2.16299 4.04771C2.16299 2.95361 2.45914 1.95067 2.97754 1.07537C5.92113 4.64948 10.3458 6.98356 15.3072 7.2389C15.2147 6.80125 15.1591 6.34541 15.1591 5.88952C15.1591 2.6436 17.825 -0.000488281 21.1388 -0.000488281C22.8605 -0.000488281 24.4156 0.710686 25.5079 1.85951C26.8593 1.60423 28.1552 1.11185 29.3031 0.437162C28.8587 1.80484 27.9146 2.95366 26.6742 3.68303C27.8776 3.55544 29.0439 3.22713 30.1176 2.7713C29.3032 3.93831 28.2849 4.97768 27.1186 5.81655Z" fill="white"/>
</svg>
